<svg width="21" height="12" viewBox="0 0 21 12" fill="none" xmlns="http://www.w3.org/2000/svg">
<path opacity="0.3" d="M2.03549 7.318C1.94151 7.56242 1.75118 7.76229 1.50496 7.87516C1.25873 7.98803 0.976005 8.00499 0.716858 7.92244C0.457711 7.83989 0.242565 7.66434 0.117134 7.43309C-0.00829678 7.20184 -0.034127 6.93311 0.045132 6.684C0.0241367 6.744 0.045132 6.682 0.045132 6.682C0.0824661 6.57188 0.125918 6.46373 0.175303 6.358C0.259285 6.168 0.383157 5.906 0.553219 5.596C0.899643 4.976 1.43922 4.15 2.23495 3.324C3.84109 1.654 6.47181 0 10.4882 0C14.5046 0 17.1353 1.654 18.7415 3.324C19.5988 4.21995 20.2941 5.24521 20.799 6.358L20.8956 6.584C20.9019 6.6 20.9229 6.704 20.9439 6.804L20.9859 7C20.9859 7 21.1623 7.666 20.2679 7.948C20.0045 8.03179 19.7169 8.01275 19.4682 7.89505C19.2196 7.77735 19.0299 7.57058 18.9409 7.32V7.314L18.9284 7.282C18.8229 7.02508 18.7023 6.77402 18.5672 6.53C18.1939 5.85904 17.7325 5.23603 17.1941 4.676C15.9134 3.346 13.8202 2 10.4882 2C7.15626 2 5.06302 3.346 3.7823 4.676C3.08891 5.40014 2.52503 6.22781 2.11317 7.126C2.09115 7.17762 2.07015 7.22963 2.05019 7.282L2.03549 7.318ZM6.28915 8C6.28915 6.93913 6.73155 5.92172 7.51903 5.17157C8.30651 4.42143 9.37456 4 10.4882 4C11.6019 4 12.6699 4.42143 13.4574 5.17157C14.2449 5.92172 14.6873 6.93913 14.6873 8C14.6873 9.06087 14.2449 10.0783 13.4574 10.8284C12.6699 11.5786 11.6019 12 10.4882 12C9.37456 12 8.30651 11.5786 7.51903 10.8284C6.73155 10.0783 6.28915 9.06087 6.28915 8Z" fill="#999999"/>
</svg>
